<svg width="25" height="24" viewBox="0 0 25 24" fill="none" xmlns="http://www.w3.org/2000/svg">
<path d="M20.5306 7.71938L15.2806 2.46938C15.2109 2.39975 15.1282 2.34454 15.0371 2.3069C14.9461 2.26926 14.8485 2.24992 14.75 2.25H5.75C5.35218 2.25 4.97064 2.40804 4.68934 2.68934C4.40804 2.97064 4.25 3.35218 4.25 3.75V20.25C4.25 20.6478 4.40804 21.0294 4.68934 21.3107C4.97064 21.592 5.35218 21.75 5.75 21.75H19.25C19.6478 21.75 20.0294 21.592 20.3107 21.3107C20.592 21.0294 20.75 20.6478 20.75 20.25V8.25C20.7501 8.15148 20.7307 8.05391 20.6931 7.96286C20.6555 7.87182 20.6003 7.78908 20.5306 7.71938ZM15.5 4.81031L18.1897 7.5H15.5V4.81031ZM19.25 20.25H5.75V3.75H14V8.25C14 8.44891 14.079 8.63968 14.2197 8.78033C14.3603 8.92098 14.5511 9 14.75 9H19.25V20.25ZM16.25 12.75C16.25 12.9489 16.171 13.1397 16.0303 13.2803C15.8897 13.421 15.6989 13.5 15.5 13.5H9.5C9.30109 13.5 9.11032 13.421 8.96967 13.2803C8.82902 13.1397 8.75 12.9489 8.75 12.75C8.75 12.5511 8.82902 12.3603 8.96967 12.2197C9.11032 12.079 9.30109 12 9.5 12H15.5C15.6989 12 15.8897 12.079 16.0303 12.2197C16.171 12.3603 16.25 12.5511 16.25 12.75ZM16.25 15.75C16.25 15.9489 16.171 16.1397 16.0303 16.2803C15.8897 16.421 15.6989 16.5 15.5 16.5H9.5C9.30109 16.5 9.11032 16.421 8.96967 16.2803C8.82902 16.1397 8.75 15.9489 8.75 15.75C8.75 15.5511 8.82902 15.3603 8.96967 15.2197C9.11032 15.079 9.30109 15 9.5 15H15.5C15.6989 15 15.8897 15.079 16.0303 15.2197C16.171 15.3603 16.25 15.5511 16.25 15.75Z" fill="#0C1D12"/>
</svg>
